HIERARCHY
ROOT Hips
{
	OFFSET 0.000000 0.000000 0.000000
	CHANNELS 6 Xposition Yposition Zposition Zrotation Yrotation Xrotation 
	JOINT LHipJoint
	{
		OFFSET 0.000000 0.000000 0.000000
		CHANNELS 3 Zrotation Yrotation Xrotation
		JOINT LeftUpLeg
		{
			OFFSET 1.363060 -1.794630 0.839290
			CHANNELS 3 Zrotation Yrotation Xrotation
			JOINT LeftLeg
			{
				OFFSET 2.448110 -6.726130 0.000000
				CHANNELS 3 Zrotation Yrotation Xrotation
				JOINT LeftFoot
				{
					OFFSET 2.562200 -7.039590 0.000000
					CHANNELS 3 Zrotation Yrotation Xrotation
					JOINT LeftToeBase
					{
						OFFSET 0.157640 -0.433110 2.322550
						CHANNELS 3 Zrotation Yrotation Xrotation
						End Site
						{
							OFFSET 0.000000 0.000000 0.000000
						}
					}
				}
			}
		}
	}
	JOINT RHipJoint
	{
		OFFSET 0.000000 0.000000 0.000000
		CHANNELS 3 Zrotation Yrotation Xrotation
		JOINT RightUpLeg
		{
			OFFSET -1.305520 -1.794630 0.839290
			CHANNELS 3 Zrotation Yrotation Xrotation
			JOINT RightLeg
			{
				OFFSET -2.542530 -6.985550 0.000000
				CHANNELS 3 Zrotation Yrotation Xrotation
				JOINT RightFoot
				{
					OFFSET -2.568260 -7.056230 0.000000
					CHANNELS 3 Zrotation Yrotation Xrotation
					JOINT RightToeBase
					{
						OFFSET -0.164730 -0.452590 2.363150
						CHANNELS 3 Zrotation Yrotation Xrotation
						End Site
						{
							OFFSET 0.000000 0.000000 0.000000
						}
					}
				}
			}
		}
	}
	JOINT LowerBack
	{
		OFFSET 0.000000 0.000000 0.000000
		CHANNELS 3 Zrotation Yrotation Xrotation
		JOINT Spine
		{
			OFFSET 0.028270 2.035590 -0.193380
			CHANNELS 3 Zrotation Yrotation Xrotation
			JOINT Spine1
			{
				OFFSET 0.056720 2.048850 -0.042750
				CHANNELS 3 Zrotation Yrotation Xrotation
				JOINT Neck
				{
					OFFSET 0.000000 0.000000 0.000000
					CHANNELS 3 Zrotation Yrotation Xrotation
					JOINT Neck1
					{
						OFFSET -0.054170 1.746240 0.172020
						CHANNELS 3 Zrotation Yrotation Xrotation
						JOINT Head
						{
							OFFSET 0.104070 1.761360 -0.123970
							CHANNELS 3 Zrotation Yrotation Xrotation
							End Site
							{
								OFFSET 0.000000 0.000000 0.000000
							}
						}
					}
				}
				JOINT LeftShoulder
				{
					OFFSET 0.000000 0.000000 0.000000
					CHANNELS 3 Zrotation Yrotation Xrotation
					JOINT LeftArm
					{
						OFFSET 3.362410 1.200890 -0.311210
						CHANNELS 3 Zrotation Yrotation Xrotation
						JOINT LeftForeArm
						{
							OFFSET 4.983000 -0.000000 -0.000000
							CHANNELS 3 Zrotation Yrotation Xrotation
							JOINT LeftHand
							{
								OFFSET 3.483560 -0.000000 -0.000000
								CHANNELS 3 Zrotation Yrotation Xrotation
								JOINT LeftFingerBase
								{
									OFFSET 0.000000 0.000000 0.000000
									CHANNELS 3 Zrotation Yrotation Xrotation
									JOINT LeftHandIndex1
									{
										OFFSET 0.715260 -0.000000 -0.000000
										CHANNELS 3 Zrotation Yrotation Xrotation
										End Site
										{
											OFFSET 0.000000 0.000000 0.000000
										}
									}
								}
								JOINT LThumb
								{
									OFFSET 0.000000 0.000000 0.000000
									CHANNELS 3 Zrotation Yrotation Xrotation
									End Site
									{
										OFFSET 0.000000 0.000000 0.000000
									}
								}
							}
						}
					}
				}
				JOINT RightShoulder
				{
					OFFSET 0.000000 0.000000 0.000000
					CHANNELS 3 Zrotation Yrotation Xrotation
					JOINT RightArm
					{
						OFFSET -3.136600 1.374050 -0.404650
						CHANNELS 3 Zrotation Yrotation Xrotation
						JOINT RightForeArm
						{
							OFFSET -5.241900 -0.000000 -0.000000
							CHANNELS 3 Zrotation Yrotation Xrotation
							JOINT RightHand
							{
								OFFSET -3.444170 -0.000000 -0.000000
								CHANNELS 3 Zrotation Yrotation Xrotation
								JOINT RightFingerBase
								{
									OFFSET 0.000000 0.000000 0.000000
									CHANNELS 3 Zrotation Yrotation Xrotation
									JOINT RightHandIndex1
									{
										OFFSET -0.622530 -0.000000 -0.000000
										CHANNELS 3 Zrotation Yrotation Xrotation
										End Site
										{
											OFFSET 0.000000 0.000000 0.000000
										}
									}
								}
								JOINT RThumb
								{
									OFFSET 0.000000 0.000000 0.000000
									CHANNELS 3 Zrotation Yrotation Xrotation
									End Site
									{
										OFFSET 0.000000 0.000000 0.000000
									}
								}
							}
						}
					}
				}
			}
		}
	}
}
MOTION
Frames: 10
Frame Time: 0.008333
4.054590 16.669213 1.222906 162.997770 -84.013014 -152.958540 -9.176761 0.864457 3.894867 -16.910837 -0.527523 -40.553312 -2.189559 0.560325 27.572848 1.154958 5.884605 -4.477066 0.620800 0.000000 -9.741700 10.921537 -5.911990 1.223851 3.369224 -8.762206 2.789781 1.143376 -2.621330 30.150942 0.796921 18.470042 16.019712 6.841699 0.000000 -82.027801 -10.953861 1.920506 -7.799347 -3.063416 2.578866 -4.723242 -5.541903 2.397458 -0.163680 8.252562 -1.721071 -8.604392 -2.177347 -0.161894 -0.273321 0.000000 0.000000 0.000000 -5.177720 24.442166 2.550321 -53.789286 27.043901 -18.566787 -4.949142 -2.152051 -0.004648 5.216767 3.238145 0.153406 -0.143672 -0.044641 -0.000000 0.000000 0.000000 0.000000 0.000000 0.000000 0.000000 7.076591 6.775739 -0.726200 53.442675 45.644778 23.499100 0.735587 71.601154 -0.016052 -1.781864 7.799255 -0.127502 -0.015560 -0.523212 -0.000000 0.000000 0.000000 0.000000 0.000000 0.000000 0.000000 
3.891974 16.638396 1.206354 159.672196 -83.874045 -149.857846 -8.977014 0.895336 3.715136 -17.584617 -0.433433 -40.504588 -2.115251 0.674945 29.445022 1.213225 6.120888 -5.089715 0.541400 0.000000 -9.413200 11.346427 -5.913452 1.193629 2.294933 -9.052492 1.485549 0.882733 -2.823193 33.317812 0.641659 19.344929 17.736234 7.782400 -0.000000 -82.211200 -11.381236 1.767118 -7.598262 -3.159981 2.468960 -4.700392 -5.627143 2.296289 -0.230343 8.529809 -1.516399 -8.573473 -2.278730 -0.169889 -0.277059 0.000000 0.000000 0.000000 -5.370884 24.159682 2.613107 -54.176430 26.170793 -17.964749 -4.946502 -2.333625 -0.004897 4.895341 3.338554 0.148405 -0.137510 -0.043404 -0.000000 0.000000 0.000000 0.000000 0.000000 0.000000 0.000000 7.739160 7.094522 -0.626638 54.502697 44.713672 24.345410 0.779880 71.249107 -0.014755 -1.765837 7.807758 -0.126837 -0.008838 -0.519624 -0.000000 0.000000 0.000000 0.000000 0.000000 0.000000 0.000000 
3.735300 16.605984 1.190959 156.551055 -83.719916 -146.968543 -8.757835 0.936018 3.535391 -18.255618 -0.377069 -40.365259 -2.058305 0.776059 31.220720 1.279484 6.324224 -5.966170 0.416300 -0.000000 -9.237100 11.763191 -5.866833 1.142122 1.281769 -9.304025 0.135412 0.625835 -3.012733 36.585677 0.473946 19.935982 19.393608 8.637500 0.000000 -81.450700 -11.775906 1.620551 -7.351448 -3.248896 2.362132 -4.672025 -5.710674 2.198333 -0.316350 8.778499 -1.312591 -8.539687 -2.389526 -0.178619 -0.281007 0.000000 0.000000 0.000000 -5.586968 23.781678 2.682506 -54.599956 25.239251 -17.253725 -4.938754 -2.552221 -0.004909 4.621068 3.381371 0.141809 -0.130884 -0.042154 -0.000000 0.000000 0.000000 0.000000 0.000000 0.000000 0.000000 8.416128 7.417979 -0.518018 55.531563 43.728276 25.154402 0.820392 70.797198 -0.013564 -1.759083 7.843608 -0.127276 -0.002196 -0.515989 -0.000000 0.000000 0.000000 0.000000 0.000000 0.000000 0.000000 
3.584152 16.572312 1.176263 153.469730 -83.556367 -144.126922 -8.511569 0.990037 3.360609 -18.944288 -0.377435 -40.105031 -2.021693 0.861578 32.849412 1.355914 6.517146 -7.055968 0.252000 -0.000000 -9.163200 12.182375 -5.775850 1.065521 0.297527 -9.551351 -1.257222 0.375887 -3.195443 39.934488 0.300398 20.180941 20.909649 9.321700 -0.000000 -79.848801 -12.157244 1.478430 -7.062010 -3.334708 2.257585 -4.637885 -5.793041 2.102743 -0.416699 9.004599 -1.117245 -8.503303 -2.509528 -0.188050 -0.285459 0.000000 0.000000 0.000000 -5.797883 23.313132 2.758478 -55.052220 24.222376 -16.435973 -4.923429 -2.765595 -0.004673 4.424328 3.361748 0.134819 -0.123616 -0.040745 -0.000000 0.000000 0.000000 0.000000 0.000000 0.000000 0.000000 9.116731 7.732010 -0.400695 56.526622 42.693347 25.920899 0.858811 70.234208 -0.012442 -1.756020 7.915753 -0.128521 0.004145 -0.512359 -0.000000 0.000000 0.000000 0.000000 0.000000 0.000000 0.000000 
3.438052 16.538053 1.163313 150.638009 -83.379376 -141.540785 -8.264409 1.054758 3.190070 -19.616174 -0.393480 -39.747075 -2.003700 0.936795 34.330657 1.438859 6.682531 -8.312498 0.052200 -0.000000 -9.141800 12.575001 -5.646421 0.969632 -0.604880 -9.761117 -2.671223 0.133399 -3.375040 43.324049 0.128430 19.967969 22.194480 9.720100 -0.000001 -77.641900 -12.497883 1.348902 -6.741741 -3.411896 2.160923 -4.601812 -5.875214 2.014132 -0.536216 9.201944 -0.922018 -8.456115 -2.638411 -0.198286 -0.287541 0.000000 0.000000 0.000000 -6.022736 22.739166 2.836673 -55.518938 23.153383 -15.493901 -4.901274 -2.987878 -0.004239 4.312037 3.295591 0.128631 -0.115691 -0.039269 -0.000000 0.000000 0.000000 0.000000 0.000000 0.000000 0.000000 9.830071 8.042437 -0.274896 57.485187 41.591349 26.637120 0.895678 69.552057 -0.011340 -1.748273 8.027710 -0.129974 0.009967 -0.508514 -0.000000 0.000000 0.000000 0.000000 0.000000 0.000000 0.000000 
3.296232 16.503923 1.151843 147.980335 -83.191733 -139.132434 -8.015702 1.131053 3.026300 -20.279435 -0.426616 -39.284322 -2.003050 1.001682 35.636799 1.528732 6.839058 -9.664439 -0.172400 0.000000 -9.136499 12.945844 -5.484739 0.856250 -1.441361 -9.945872 -4.104768 -0.104479 -3.556423 46.729854 -0.039343 19.251648 23.173507 9.760601 -0.000000 -75.128300 -12.807918 1.230863 -6.398758 -3.483054 2.072057 -4.564073 -5.957803 1.932255 -0.668139 9.376752 -0.733438 -8.398890 -2.774915 -0.209201 -0.287465 0.000000 0.000000 0.000000 -6.242798 22.076470 2.915439 -55.990052 22.003258 -14.424978 -4.870879 -3.184399 -0.003643 4.299108 3.188693 0.123849 -0.106998 -0.037538 -0.000000 0.000000 0.000000 0.000000 0.000000 0.000000 0.000000 10.560037 8.335952 -0.142941 58.412811 40.426648 27.301096 0.932820 68.733673 -0.010209 -1.729632 8.181451 -0.131234 0.015086 -0.504287 -0.000000 0.000000 0.000000 0.000000 0.000000 0.000000 0.000000 
3.158049 16.470807 1.142224 145.549425 -82.996245 -136.953271 -7.777307 1.215874 2.869028 -20.919420 -0.457871 -38.731684 -2.015965 1.058344 36.763587 1.622996 6.990056 -11.043999 -0.411500 0.000000 -9.116600 13.285897 -5.297671 0.731125 -2.194546 -10.090946 -5.551693 -0.341662 -3.742178 50.120452 -0.202469 18.001012 23.787689 9.399500 0.000000 -72.597200 -13.078813 1.126302 -6.043529 -3.546561 1.992441 -4.526759 -6.041431 1.858054 -0.811735 9.529933 -0.549361 -8.327491 -2.917473 -0.220717 -0.283715 0.000000 0.000000 0.000000 -6.461152 21.326920 2.991708 -56.453904 20.778699 -13.221097 -4.832990 -3.355381 -0.002960 4.382699 3.058049 0.120770 -0.097584 -0.035457 -0.000000 0.000000 0.000000 0.000000 0.000000 0.000000 0.000000 11.300148 8.609216 -0.007106 59.316441 39.191891 27.906074 0.971487 67.762440 -0.009027 -1.695040 8.374661 -0.131705 0.019359 -0.499388 -0.000000 0.000000 0.000000 0.000000 0.000000 0.000000 0.000000 
3.022728 16.439628 1.134510 143.350804 -82.797614 -135.004371 -7.555294 1.306890 2.718332 -21.528857 -0.476542 -38.103089 -2.038463 1.107986 37.710683 1.719052 7.141684 -12.386768 -0.654500 -0.000000 -9.064400 13.592918 -5.091421 0.600254 -2.858607 -10.186213 -7.010208 -0.581856 -3.933281 53.467318 -0.362531 16.232701 23.990495 8.643000 0.000001 -70.252600 -13.307988 1.035086 -5.686001 -3.601971 1.922012 -4.491151 -6.126464 1.791150 -0.963737 9.665033 -0.370497 -8.240007 -3.064016 -0.232682 -0.275460 0.000000 0.000000 0.000000 -6.676383 20.499472 3.062847 -56.900825 19.477684 -11.876425 -4.788453 -3.500271 -0.002266 4.554089 2.921103 0.119494 -0.087573 -0.032881 -0.000000 0.000000 0.000000 0.000000 0.000000 0.000000 0.000000 12.045453 8.855190 0.129763 60.204994 37.884991 28.443284 1.013001 66.618545 -0.007780 -1.641976 8.601271 -0.131085 0.022711 -0.493485 -0.000000 0.000000 0.000000 0.000000 0.000000 0.000000 0.000000 
2.889676 16.411227 1.128624 141.364898 -82.600375 -133.263441 -7.352037 1.402109 2.574217 -22.103070 -0.478072 -37.410500 -2.066813 1.151309 38.479976 1.814146 7.300133 -13.636367 -0.891000 -0.000000 -8.975001 13.868099 -4.870551 0.468830 -3.432946 -10.224312 -8.478616 -0.827399 -4.129212 56.741221 -0.521926 14.007753 23.752894 7.546401 0.000000 -68.159900 -13.496054 0.956062 -5.333890 -3.649407 1.859977 -4.457537 -6.212765 1.730617 -1.119115 9.786288 -0.200155 -8.137053 -3.211857 -0.244848 -0.262623 0.000000 0.000000 0.000000 -6.885051 19.610284 3.126520 -57.322590 18.089692 -10.383335 -4.738246 -3.621353 -0.001647 4.799273 2.795834 0.120120 -0.077170 -0.029628 -0.000000 0.000000 0.000000 0.000000 0.000000 0.000000 0.000000 12.789499 9.064390 0.263881 61.090011 36.509623 28.901969 1.058391 65.281101 -0.006489 -1.571735 8.853024 -0.129077 0.025149 -0.486236 -0.000000 0.000000 0.000000 0.000000 0.000000 0.000000 0.000000 
2.758307 16.386442 1.124706 139.606739 -82.413454 -131.740885 -7.174111 1.498162 2.435967 -22.628678 -0.452722 -36.674186 -2.097216 1.189406 39.087329 1.904128 7.460735 -14.754479 -1.112700 -0.000001 -8.853900 14.108024 -4.640403 0.342617 -3.905598 -10.194093 -9.955530 -1.078475 -4.327754 59.911366 -0.682710 11.418939 23.064561 6.201400 0.000000 -66.264200 -13.634953 0.888786 -4.994950 -3.686916 1.805496 -4.427660 -6.300136 1.675310 -1.278988 9.894234 -0.034121 -8.013869 -3.358221 -0.257042 -0.243413 0.000000 0.000000 0.000000 -7.094344 18.652579 3.180930 -57.713962 16.642103 -8.752362 -4.684593 -3.747097 -0.001172 5.094181 2.698588 0.122647 -0.066750 -0.025654 -0.000000 0.000000 0.000000 0.000000 0.000000 0.000000 0.000000 13.519176 9.234945 0.392926 61.981281 35.058860 29.261387 1.107994 63.731440 -0.005212 -1.491206 9.119362 -0.126081 0.026778 -0.477301 -0.000000 0.000000 0.000000 0.000000 0.000000 0.000000 0.000000 
